<mxfile host="Electron" agent="Mozilla/5.0 (Windows NT 10.0; Win64; x64) AppleWebKit/537.36 (KHTML, like Gecko) draw.io/26.2.2 Chrome/134.0.6998.178 Electron/35.1.2 Safari/537.36" version="26.2.2">
  <diagram id="C5RBs43oDa-KdzZeNtuy" name="Page-1">
    <mxGraphModel dx="4264" dy="2734" grid="1" gridSize="10" guides="1" tooltips="1" connect="1" arrows="1" fold="1" page="1" pageScale="1" pageWidth="827" pageHeight="1169" math="0" shadow="0">
      <root>
        <mxCell id="WIyWlLk6GJQsqaUBKTNV-0" />
        <mxCell id="WIyWlLk6GJQsqaUBKTNV-1" parent="WIyWlLk6GJQsqaUBKTNV-0" />
        <mxCell id="UQ2DM836Tyy0t1lEemUF-16" value="" style="edgeStyle=orthogonalEdgeStyle;rounded=0;orthogonalLoop=1;jettySize=auto;html=1;" parent="WIyWlLk6GJQsqaUBKTNV-1" source="UQ2DM836Tyy0t1lEemUF-0" target="UQ2DM836Tyy0t1lEemUF-15" edge="1">
          <mxGeometry relative="1" as="geometry" />
        </mxCell>
        <mxCell id="UQ2DM836Tyy0t1lEemUF-0" value="Ausgabe: &quot;Starte Programm&quot;" style="rounded=1;whiteSpace=wrap;html=1;fontSize=12;glass=0;strokeWidth=1;shadow=0;" parent="WIyWlLk6GJQsqaUBKTNV-1" vertex="1">
          <mxGeometry x="-1280" y="-1169" width="120" height="40" as="geometry" />
        </mxCell>
        <mxCell id="krHY8QpFGz4U-bWxoSgT-1" value="Ja" style="edgeStyle=orthogonalEdgeStyle;rounded=0;orthogonalLoop=1;jettySize=auto;html=1;exitX=1;exitY=0.5;exitDx=0;exitDy=0;entryX=0;entryY=0.5;entryDx=0;entryDy=0;" edge="1" parent="WIyWlLk6GJQsqaUBKTNV-1" source="UQ2DM836Tyy0t1lEemUF-13" target="UQ2DM836Tyy0t1lEemUF-20">
          <mxGeometry relative="1" as="geometry" />
        </mxCell>
        <mxCell id="krHY8QpFGz4U-bWxoSgT-3" value="Nein" style="edgeStyle=orthogonalEdgeStyle;rounded=0;orthogonalLoop=1;jettySize=auto;html=1;exitX=0;exitY=0.5;exitDx=0;exitDy=0;" edge="1" parent="WIyWlLk6GJQsqaUBKTNV-1" source="UQ2DM836Tyy0t1lEemUF-13" target="UQ2DM836Tyy0t1lEemUF-24">
          <mxGeometry relative="1" as="geometry" />
        </mxCell>
        <mxCell id="UQ2DM836Tyy0t1lEemUF-13" value="CanMove()" style="strokeWidth=2;html=1;shape=rhombus;whiteSpace=wrap;" parent="WIyWlLk6GJQsqaUBKTNV-1" vertex="1">
          <mxGeometry x="-1255" y="-1019" width="70" height="80" as="geometry" />
        </mxCell>
        <mxCell id="UQ2DM836Tyy0t1lEemUF-17" value="" style="edgeStyle=orthogonalEdgeStyle;rounded=0;orthogonalLoop=1;jettySize=auto;html=1;" parent="WIyWlLk6GJQsqaUBKTNV-1" source="UQ2DM836Tyy0t1lEemUF-15" target="UQ2DM836Tyy0t1lEemUF-13" edge="1">
          <mxGeometry relative="1" as="geometry" />
        </mxCell>
        <mxCell id="UQ2DM836Tyy0t1lEemUF-15" value="int width = 1;" style="rounded=1;whiteSpace=wrap;html=1;fontSize=12;glass=0;strokeWidth=1;shadow=0;" parent="WIyWlLk6GJQsqaUBKTNV-1" vertex="1">
          <mxGeometry x="-1280" y="-1109" width="120" height="40" as="geometry" />
        </mxCell>
        <mxCell id="krHY8QpFGz4U-bWxoSgT-5" value="" style="edgeStyle=orthogonalEdgeStyle;rounded=0;orthogonalLoop=1;jettySize=auto;html=1;" edge="1" parent="WIyWlLk6GJQsqaUBKTNV-1" source="UQ2DM836Tyy0t1lEemUF-20" target="krHY8QpFGz4U-bWxoSgT-4">
          <mxGeometry relative="1" as="geometry" />
        </mxCell>
        <mxCell id="UQ2DM836Tyy0t1lEemUF-20" value="width = width + 1;" style="whiteSpace=wrap;html=1;strokeWidth=2;" parent="WIyWlLk6GJQsqaUBKTNV-1" vertex="1">
          <mxGeometry x="-1130" y="-1009" width="120" height="60" as="geometry" />
        </mxCell>
        <mxCell id="UQ2DM836Tyy0t1lEemUF-28" value="" style="edgeStyle=orthogonalEdgeStyle;rounded=0;orthogonalLoop=1;jettySize=auto;html=1;" parent="WIyWlLk6GJQsqaUBKTNV-1" source="UQ2DM836Tyy0t1lEemUF-24" target="UQ2DM836Tyy0t1lEemUF-27" edge="1">
          <mxGeometry relative="1" as="geometry" />
        </mxCell>
        <mxCell id="UQ2DM836Tyy0t1lEemUF-24" value="Ausgabe: &quot;Breite:&quot;" style="whiteSpace=wrap;html=1;strokeWidth=2;" parent="WIyWlLk6GJQsqaUBKTNV-1" vertex="1">
          <mxGeometry x="-1430" y="-1009" width="120" height="60" as="geometry" />
        </mxCell>
        <mxCell id="krHY8QpFGz4U-bWxoSgT-9" value="" style="edgeStyle=orthogonalEdgeStyle;rounded=0;orthogonalLoop=1;jettySize=auto;html=1;" edge="1" parent="WIyWlLk6GJQsqaUBKTNV-1" source="UQ2DM836Tyy0t1lEemUF-27" target="krHY8QpFGz4U-bWxoSgT-8">
          <mxGeometry relative="1" as="geometry" />
        </mxCell>
        <mxCell id="UQ2DM836Tyy0t1lEemUF-27" value="Ausgabe: width" style="whiteSpace=wrap;html=1;strokeWidth=2;" parent="WIyWlLk6GJQsqaUBKTNV-1" vertex="1">
          <mxGeometry x="-1630" y="-1009" width="120" height="60" as="geometry" />
        </mxCell>
        <mxCell id="krHY8QpFGz4U-bWxoSgT-6" style="edgeStyle=orthogonalEdgeStyle;rounded=0;orthogonalLoop=1;jettySize=auto;html=1;entryX=0.5;entryY=1;entryDx=0;entryDy=0;" edge="1" parent="WIyWlLk6GJQsqaUBKTNV-1" source="krHY8QpFGz4U-bWxoSgT-4" target="UQ2DM836Tyy0t1lEemUF-13">
          <mxGeometry relative="1" as="geometry">
            <Array as="points">
              <mxPoint x="-870" y="-919" />
              <mxPoint x="-1220" y="-919" />
            </Array>
          </mxGeometry>
        </mxCell>
        <mxCell id="krHY8QpFGz4U-bWxoSgT-4" value="Forward();" style="whiteSpace=wrap;html=1;strokeWidth=2;" vertex="1" parent="WIyWlLk6GJQsqaUBKTNV-1">
          <mxGeometry x="-930" y="-1009" width="120" height="60" as="geometry" />
        </mxCell>
        <mxCell id="krHY8QpFGz4U-bWxoSgT-11" value="" style="edgeStyle=orthogonalEdgeStyle;rounded=0;orthogonalLoop=1;jettySize=auto;html=1;" edge="1" parent="WIyWlLk6GJQsqaUBKTNV-1" source="krHY8QpFGz4U-bWxoSgT-8" target="krHY8QpFGz4U-bWxoSgT-10">
          <mxGeometry relative="1" as="geometry" />
        </mxCell>
        <mxCell id="krHY8QpFGz4U-bWxoSgT-8" value="Left()" style="whiteSpace=wrap;html=1;strokeWidth=2;" vertex="1" parent="WIyWlLk6GJQsqaUBKTNV-1">
          <mxGeometry x="-1630" y="-869" width="120" height="60" as="geometry" />
        </mxCell>
        <mxCell id="krHY8QpFGz4U-bWxoSgT-13" value="" style="edgeStyle=orthogonalEdgeStyle;rounded=0;orthogonalLoop=1;jettySize=auto;html=1;" edge="1" parent="WIyWlLk6GJQsqaUBKTNV-1" source="krHY8QpFGz4U-bWxoSgT-10" target="krHY8QpFGz4U-bWxoSgT-12">
          <mxGeometry relative="1" as="geometry" />
        </mxCell>
        <mxCell id="krHY8QpFGz4U-bWxoSgT-10" value="Left()" style="whiteSpace=wrap;html=1;strokeWidth=2;" vertex="1" parent="WIyWlLk6GJQsqaUBKTNV-1">
          <mxGeometry x="-1630" y="-729" width="120" height="60" as="geometry" />
        </mxCell>
        <mxCell id="krHY8QpFGz4U-bWxoSgT-15" style="edgeStyle=orthogonalEdgeStyle;rounded=0;orthogonalLoop=1;jettySize=auto;html=1;exitX=1;exitY=0.5;exitDx=0;exitDy=0;" edge="1" parent="WIyWlLk6GJQsqaUBKTNV-1" source="krHY8QpFGz4U-bWxoSgT-12" target="krHY8QpFGz4U-bWxoSgT-14">
          <mxGeometry relative="1" as="geometry" />
        </mxCell>
        <mxCell id="krHY8QpFGz4U-bWxoSgT-12" value="int i = 0" style="whiteSpace=wrap;html=1;strokeWidth=2;" vertex="1" parent="WIyWlLk6GJQsqaUBKTNV-1">
          <mxGeometry x="-1430" y="-729" width="120" height="60" as="geometry" />
        </mxCell>
        <mxCell id="krHY8QpFGz4U-bWxoSgT-17" value="Ja" style="edgeStyle=orthogonalEdgeStyle;rounded=0;orthogonalLoop=1;jettySize=auto;html=1;exitX=1;exitY=0.5;exitDx=0;exitDy=0;exitPerimeter=0;" edge="1" parent="WIyWlLk6GJQsqaUBKTNV-1" source="krHY8QpFGz4U-bWxoSgT-14" target="krHY8QpFGz4U-bWxoSgT-16">
          <mxGeometry relative="1" as="geometry" />
        </mxCell>
        <mxCell id="krHY8QpFGz4U-bWxoSgT-25" value="Nein" style="edgeStyle=orthogonalEdgeStyle;rounded=0;orthogonalLoop=1;jettySize=auto;html=1;exitX=0.5;exitY=1;exitDx=0;exitDy=0;exitPerimeter=0;" edge="1" parent="WIyWlLk6GJQsqaUBKTNV-1" source="krHY8QpFGz4U-bWxoSgT-14" target="krHY8QpFGz4U-bWxoSgT-23">
          <mxGeometry relative="1" as="geometry" />
        </mxCell>
        <mxCell id="krHY8QpFGz4U-bWxoSgT-14" value="i &amp;lt; width" style="strokeWidth=2;html=1;shape=mxgraph.flowchart.decision;whiteSpace=wrap;" vertex="1" parent="WIyWlLk6GJQsqaUBKTNV-1">
          <mxGeometry x="-1220" y="-749" width="100" height="100" as="geometry" />
        </mxCell>
        <mxCell id="krHY8QpFGz4U-bWxoSgT-19" value="" style="edgeStyle=orthogonalEdgeStyle;rounded=0;orthogonalLoop=1;jettySize=auto;html=1;" edge="1" parent="WIyWlLk6GJQsqaUBKTNV-1" source="krHY8QpFGz4U-bWxoSgT-16" target="krHY8QpFGz4U-bWxoSgT-18">
          <mxGeometry relative="1" as="geometry" />
        </mxCell>
        <mxCell id="krHY8QpFGz4U-bWxoSgT-16" value="Forward();" style="whiteSpace=wrap;html=1;strokeWidth=2;" vertex="1" parent="WIyWlLk6GJQsqaUBKTNV-1">
          <mxGeometry x="-1050" y="-729" width="120" height="60" as="geometry" />
        </mxCell>
        <mxCell id="krHY8QpFGz4U-bWxoSgT-18" value="i = i + 1" style="whiteSpace=wrap;html=1;strokeWidth=2;" vertex="1" parent="WIyWlLk6GJQsqaUBKTNV-1">
          <mxGeometry x="-850" y="-729" width="120" height="60" as="geometry" />
        </mxCell>
        <mxCell id="krHY8QpFGz4U-bWxoSgT-21" style="edgeStyle=orthogonalEdgeStyle;rounded=0;orthogonalLoop=1;jettySize=auto;html=1;exitX=0.5;exitY=0;exitDx=0;exitDy=0;entryX=0.5;entryY=0;entryDx=0;entryDy=0;entryPerimeter=0;" edge="1" parent="WIyWlLk6GJQsqaUBKTNV-1" source="krHY8QpFGz4U-bWxoSgT-18" target="krHY8QpFGz4U-bWxoSgT-14">
          <mxGeometry relative="1" as="geometry">
            <Array as="points">
              <mxPoint x="-790" y="-859" />
              <mxPoint x="-1170" y="-859" />
            </Array>
          </mxGeometry>
        </mxCell>
        <mxCell id="krHY8QpFGz4U-bWxoSgT-26" value="" style="edgeStyle=orthogonalEdgeStyle;rounded=0;orthogonalLoop=1;jettySize=auto;html=1;" edge="1" parent="WIyWlLk6GJQsqaUBKTNV-1" source="krHY8QpFGz4U-bWxoSgT-23" target="krHY8QpFGz4U-bWxoSgT-24">
          <mxGeometry relative="1" as="geometry" />
        </mxCell>
        <mxCell id="krHY8QpFGz4U-bWxoSgT-23" value="Left()" style="whiteSpace=wrap;html=1;strokeWidth=2;" vertex="1" parent="WIyWlLk6GJQsqaUBKTNV-1">
          <mxGeometry x="-1230" y="-579" width="120" height="60" as="geometry" />
        </mxCell>
        <mxCell id="krHY8QpFGz4U-bWxoSgT-33" style="edgeStyle=orthogonalEdgeStyle;rounded=0;orthogonalLoop=1;jettySize=auto;html=1;exitX=0.5;exitY=1;exitDx=0;exitDy=0;" edge="1" parent="WIyWlLk6GJQsqaUBKTNV-1" source="krHY8QpFGz4U-bWxoSgT-24" target="krHY8QpFGz4U-bWxoSgT-32">
          <mxGeometry relative="1" as="geometry" />
        </mxCell>
        <mxCell id="krHY8QpFGz4U-bWxoSgT-24" value="Left()" style="whiteSpace=wrap;html=1;strokeWidth=2;" vertex="1" parent="WIyWlLk6GJQsqaUBKTNV-1">
          <mxGeometry x="-1230" y="-489" width="120" height="60" as="geometry" />
        </mxCell>
        <mxCell id="krHY8QpFGz4U-bWxoSgT-60" style="edgeStyle=orthogonalEdgeStyle;rounded=0;orthogonalLoop=1;jettySize=auto;html=1;exitX=0.5;exitY=1;exitDx=0;exitDy=0;" edge="1" parent="WIyWlLk6GJQsqaUBKTNV-1" source="krHY8QpFGz4U-bWxoSgT-27" target="krHY8QpFGz4U-bWxoSgT-59">
          <mxGeometry relative="1" as="geometry" />
        </mxCell>
        <mxCell id="krHY8QpFGz4U-bWxoSgT-27" value="int j = 0" style="whiteSpace=wrap;html=1;strokeWidth=2;" vertex="1" parent="WIyWlLk6GJQsqaUBKTNV-1">
          <mxGeometry x="-1230" y="-279" width="120" height="60" as="geometry" />
        </mxCell>
        <mxCell id="krHY8QpFGz4U-bWxoSgT-35" style="edgeStyle=orthogonalEdgeStyle;rounded=0;orthogonalLoop=1;jettySize=auto;html=1;exitX=1;exitY=0.5;exitDx=0;exitDy=0;" edge="1" parent="WIyWlLk6GJQsqaUBKTNV-1" source="krHY8QpFGz4U-bWxoSgT-29" target="krHY8QpFGz4U-bWxoSgT-31">
          <mxGeometry relative="1" as="geometry" />
        </mxCell>
        <mxCell id="krHY8QpFGz4U-bWxoSgT-29" value="i = 0" style="whiteSpace=wrap;html=1;strokeWidth=2;" vertex="1" parent="WIyWlLk6GJQsqaUBKTNV-1">
          <mxGeometry x="-1040" y="-459" width="120" height="60" as="geometry" />
        </mxCell>
        <mxCell id="krHY8QpFGz4U-bWxoSgT-38" value="Ja" style="edgeStyle=orthogonalEdgeStyle;rounded=0;orthogonalLoop=1;jettySize=auto;html=1;exitX=1;exitY=0.5;exitDx=0;exitDy=0;exitPerimeter=0;" edge="1" parent="WIyWlLk6GJQsqaUBKTNV-1" source="krHY8QpFGz4U-bWxoSgT-31" target="krHY8QpFGz4U-bWxoSgT-36">
          <mxGeometry relative="1" as="geometry" />
        </mxCell>
        <mxCell id="krHY8QpFGz4U-bWxoSgT-42" value="Nein" style="edgeStyle=orthogonalEdgeStyle;rounded=0;orthogonalLoop=1;jettySize=auto;html=1;exitX=0.5;exitY=1;exitDx=0;exitDy=0;exitPerimeter=0;" edge="1" parent="WIyWlLk6GJQsqaUBKTNV-1" source="krHY8QpFGz4U-bWxoSgT-31" target="krHY8QpFGz4U-bWxoSgT-41">
          <mxGeometry relative="1" as="geometry" />
        </mxCell>
        <mxCell id="krHY8QpFGz4U-bWxoSgT-31" value="i &amp;lt; width - 2" style="strokeWidth=2;html=1;shape=mxgraph.flowchart.decision;whiteSpace=wrap;" vertex="1" parent="WIyWlLk6GJQsqaUBKTNV-1">
          <mxGeometry x="-870" y="-479" width="100" height="100" as="geometry" />
        </mxCell>
        <mxCell id="krHY8QpFGz4U-bWxoSgT-34" style="edgeStyle=orthogonalEdgeStyle;rounded=0;orthogonalLoop=1;jettySize=auto;html=1;exitX=0.5;exitY=1;exitDx=0;exitDy=0;" edge="1" parent="WIyWlLk6GJQsqaUBKTNV-1" source="krHY8QpFGz4U-bWxoSgT-32" target="krHY8QpFGz4U-bWxoSgT-27">
          <mxGeometry relative="1" as="geometry" />
        </mxCell>
        <mxCell id="krHY8QpFGz4U-bWxoSgT-32" value="Forward();" style="whiteSpace=wrap;html=1;strokeWidth=2;" vertex="1" parent="WIyWlLk6GJQsqaUBKTNV-1">
          <mxGeometry x="-1230" y="-389" width="120" height="60" as="geometry" />
        </mxCell>
        <mxCell id="krHY8QpFGz4U-bWxoSgT-39" style="edgeStyle=orthogonalEdgeStyle;rounded=0;orthogonalLoop=1;jettySize=auto;html=1;exitX=1;exitY=0.5;exitDx=0;exitDy=0;" edge="1" parent="WIyWlLk6GJQsqaUBKTNV-1" source="krHY8QpFGz4U-bWxoSgT-36" target="krHY8QpFGz4U-bWxoSgT-37">
          <mxGeometry relative="1" as="geometry" />
        </mxCell>
        <mxCell id="krHY8QpFGz4U-bWxoSgT-36" value="Forward();" style="whiteSpace=wrap;html=1;strokeWidth=2;" vertex="1" parent="WIyWlLk6GJQsqaUBKTNV-1">
          <mxGeometry x="-710" y="-459" width="120" height="60" as="geometry" />
        </mxCell>
        <mxCell id="krHY8QpFGz4U-bWxoSgT-37" value="i = i + 1" style="whiteSpace=wrap;html=1;strokeWidth=2;" vertex="1" parent="WIyWlLk6GJQsqaUBKTNV-1">
          <mxGeometry x="-510" y="-459" width="120" height="60" as="geometry" />
        </mxCell>
        <mxCell id="krHY8QpFGz4U-bWxoSgT-40" style="edgeStyle=orthogonalEdgeStyle;rounded=0;orthogonalLoop=1;jettySize=auto;html=1;exitX=0.5;exitY=0;exitDx=0;exitDy=0;entryX=0.5;entryY=0;entryDx=0;entryDy=0;entryPerimeter=0;" edge="1" parent="WIyWlLk6GJQsqaUBKTNV-1" source="krHY8QpFGz4U-bWxoSgT-37" target="krHY8QpFGz4U-bWxoSgT-31">
          <mxGeometry relative="1" as="geometry">
            <Array as="points">
              <mxPoint x="-450" y="-579" />
              <mxPoint x="-820" y="-579" />
            </Array>
          </mxGeometry>
        </mxCell>
        <mxCell id="krHY8QpFGz4U-bWxoSgT-76" style="edgeStyle=orthogonalEdgeStyle;rounded=0;orthogonalLoop=1;jettySize=auto;html=1;exitX=1;exitY=0.5;exitDx=0;exitDy=0;" edge="1" parent="WIyWlLk6GJQsqaUBKTNV-1" source="krHY8QpFGz4U-bWxoSgT-41" target="krHY8QpFGz4U-bWxoSgT-75">
          <mxGeometry relative="1" as="geometry" />
        </mxCell>
        <mxCell id="krHY8QpFGz4U-bWxoSgT-41" value="Left()" style="whiteSpace=wrap;html=1;strokeWidth=2;" vertex="1" parent="WIyWlLk6GJQsqaUBKTNV-1">
          <mxGeometry x="-880" y="-319" width="120" height="60" as="geometry" />
        </mxCell>
        <mxCell id="krHY8QpFGz4U-bWxoSgT-45" value="Ja" style="edgeStyle=orthogonalEdgeStyle;rounded=0;orthogonalLoop=1;jettySize=auto;html=1;exitX=0;exitY=0.5;exitDx=0;exitDy=0;exitPerimeter=0;entryX=0.581;entryY=0.985;entryDx=0;entryDy=0;entryPerimeter=0;" edge="1" parent="WIyWlLk6GJQsqaUBKTNV-1" source="krHY8QpFGz4U-bWxoSgT-43" target="krHY8QpFGz4U-bWxoSgT-48">
          <mxGeometry relative="1" as="geometry" />
        </mxCell>
        <mxCell id="krHY8QpFGz4U-bWxoSgT-47" value="Nein" style="edgeStyle=orthogonalEdgeStyle;rounded=0;orthogonalLoop=1;jettySize=auto;html=1;exitX=1;exitY=0.5;exitDx=0;exitDy=0;exitPerimeter=0;" edge="1" parent="WIyWlLk6GJQsqaUBKTNV-1" source="krHY8QpFGz4U-bWxoSgT-43" target="krHY8QpFGz4U-bWxoSgT-46">
          <mxGeometry relative="1" as="geometry" />
        </mxCell>
        <mxCell id="krHY8QpFGz4U-bWxoSgT-43" value="j &amp;lt; 3" style="strokeWidth=2;html=1;shape=mxgraph.flowchart.decision;whiteSpace=wrap;" vertex="1" parent="WIyWlLk6GJQsqaUBKTNV-1">
          <mxGeometry x="-870" y="30" width="100" height="100" as="geometry" />
        </mxCell>
        <mxCell id="krHY8QpFGz4U-bWxoSgT-67" value="" style="edgeStyle=orthogonalEdgeStyle;rounded=0;orthogonalLoop=1;jettySize=auto;html=1;" edge="1" parent="WIyWlLk6GJQsqaUBKTNV-1" source="krHY8QpFGz4U-bWxoSgT-46" target="krHY8QpFGz4U-bWxoSgT-64">
          <mxGeometry relative="1" as="geometry" />
        </mxCell>
        <mxCell id="krHY8QpFGz4U-bWxoSgT-46" value="Ausgabe: &quot;Unloading boxes&quot;" style="whiteSpace=wrap;html=1;strokeWidth=2;" vertex="1" parent="WIyWlLk6GJQsqaUBKTNV-1">
          <mxGeometry x="-640" y="50" width="120" height="60" as="geometry" />
        </mxCell>
        <mxCell id="krHY8QpFGz4U-bWxoSgT-49" style="edgeStyle=orthogonalEdgeStyle;rounded=0;orthogonalLoop=1;jettySize=auto;html=1;exitX=0.5;exitY=0;exitDx=0;exitDy=0;" edge="1" parent="WIyWlLk6GJQsqaUBKTNV-1" source="krHY8QpFGz4U-bWxoSgT-48" target="krHY8QpFGz4U-bWxoSgT-29">
          <mxGeometry relative="1" as="geometry" />
        </mxCell>
        <mxCell id="krHY8QpFGz4U-bWxoSgT-48" value="j = j + 1" style="whiteSpace=wrap;html=1;strokeWidth=2;" vertex="1" parent="WIyWlLk6GJQsqaUBKTNV-1">
          <mxGeometry x="-1040" y="-310" width="120" height="60" as="geometry" />
        </mxCell>
        <mxCell id="krHY8QpFGz4U-bWxoSgT-57" value="" style="edgeStyle=orthogonalEdgeStyle;rounded=0;orthogonalLoop=1;jettySize=auto;html=1;" edge="1" parent="WIyWlLk6GJQsqaUBKTNV-1" source="krHY8QpFGz4U-bWxoSgT-53" target="krHY8QpFGz4U-bWxoSgT-56">
          <mxGeometry relative="1" as="geometry" />
        </mxCell>
        <mxCell id="krHY8QpFGz4U-bWxoSgT-53" value="PickUpBox()" style="whiteSpace=wrap;html=1;strokeWidth=2;" vertex="1" parent="WIyWlLk6GJQsqaUBKTNV-1">
          <mxGeometry x="-880" y="-189" width="120" height="60" as="geometry" />
        </mxCell>
        <mxCell id="krHY8QpFGz4U-bWxoSgT-58" value="" style="edgeStyle=orthogonalEdgeStyle;rounded=0;orthogonalLoop=1;jettySize=auto;html=1;" edge="1" parent="WIyWlLk6GJQsqaUBKTNV-1" source="krHY8QpFGz4U-bWxoSgT-56" target="krHY8QpFGz4U-bWxoSgT-43">
          <mxGeometry relative="1" as="geometry" />
        </mxCell>
        <mxCell id="krHY8QpFGz4U-bWxoSgT-56" value="boxes = boxes + 1" style="whiteSpace=wrap;html=1;strokeWidth=2;" vertex="1" parent="WIyWlLk6GJQsqaUBKTNV-1">
          <mxGeometry x="-880" y="-90" width="120" height="60" as="geometry" />
        </mxCell>
        <mxCell id="krHY8QpFGz4U-bWxoSgT-62" style="edgeStyle=orthogonalEdgeStyle;rounded=0;orthogonalLoop=1;jettySize=auto;html=1;exitX=1;exitY=0.5;exitDx=0;exitDy=0;entryX=0.25;entryY=1;entryDx=0;entryDy=0;" edge="1" parent="WIyWlLk6GJQsqaUBKTNV-1" source="krHY8QpFGz4U-bWxoSgT-59" target="krHY8QpFGz4U-bWxoSgT-29">
          <mxGeometry relative="1" as="geometry" />
        </mxCell>
        <mxCell id="krHY8QpFGz4U-bWxoSgT-59" value="int boxes = 0" style="whiteSpace=wrap;html=1;strokeWidth=2;" vertex="1" parent="WIyWlLk6GJQsqaUBKTNV-1">
          <mxGeometry x="-1230" y="-180" width="120" height="60" as="geometry" />
        </mxCell>
        <mxCell id="krHY8QpFGz4U-bWxoSgT-68" value="" style="edgeStyle=orthogonalEdgeStyle;rounded=0;orthogonalLoop=1;jettySize=auto;html=1;" edge="1" parent="WIyWlLk6GJQsqaUBKTNV-1" source="krHY8QpFGz4U-bWxoSgT-64" target="krHY8QpFGz4U-bWxoSgT-65">
          <mxGeometry relative="1" as="geometry" />
        </mxCell>
        <mxCell id="krHY8QpFGz4U-bWxoSgT-64" value="i = 0" style="whiteSpace=wrap;html=1;strokeWidth=2;" vertex="1" parent="WIyWlLk6GJQsqaUBKTNV-1">
          <mxGeometry x="-460" y="50" width="120" height="60" as="geometry" />
        </mxCell>
        <mxCell id="krHY8QpFGz4U-bWxoSgT-69" value="Ja" style="edgeStyle=orthogonalEdgeStyle;rounded=0;orthogonalLoop=1;jettySize=auto;html=1;exitX=1;exitY=0.5;exitDx=0;exitDy=0;exitPerimeter=0;" edge="1" parent="WIyWlLk6GJQsqaUBKTNV-1" source="krHY8QpFGz4U-bWxoSgT-65" target="krHY8QpFGz4U-bWxoSgT-66">
          <mxGeometry relative="1" as="geometry" />
        </mxCell>
        <mxCell id="krHY8QpFGz4U-bWxoSgT-74" value="Nein" style="edgeStyle=orthogonalEdgeStyle;rounded=0;orthogonalLoop=1;jettySize=auto;html=1;exitX=0.5;exitY=1;exitDx=0;exitDy=0;exitPerimeter=0;" edge="1" parent="WIyWlLk6GJQsqaUBKTNV-1" source="krHY8QpFGz4U-bWxoSgT-65" target="krHY8QpFGz4U-bWxoSgT-73">
          <mxGeometry relative="1" as="geometry" />
        </mxCell>
        <mxCell id="krHY8QpFGz4U-bWxoSgT-65" value="i &amp;lt; boxes" style="strokeWidth=2;html=1;shape=mxgraph.flowchart.decision;whiteSpace=wrap;" vertex="1" parent="WIyWlLk6GJQsqaUBKTNV-1">
          <mxGeometry x="-280" y="30" width="100" height="100" as="geometry" />
        </mxCell>
        <mxCell id="krHY8QpFGz4U-bWxoSgT-71" style="edgeStyle=orthogonalEdgeStyle;rounded=0;orthogonalLoop=1;jettySize=auto;html=1;exitX=0.5;exitY=0;exitDx=0;exitDy=0;" edge="1" parent="WIyWlLk6GJQsqaUBKTNV-1" source="krHY8QpFGz4U-bWxoSgT-66" target="krHY8QpFGz4U-bWxoSgT-70">
          <mxGeometry relative="1" as="geometry" />
        </mxCell>
        <mxCell id="krHY8QpFGz4U-bWxoSgT-66" value="PlaceBox()" style="whiteSpace=wrap;html=1;strokeWidth=2;" vertex="1" parent="WIyWlLk6GJQsqaUBKTNV-1">
          <mxGeometry x="-130" y="50" width="120" height="60" as="geometry" />
        </mxCell>
        <mxCell id="krHY8QpFGz4U-bWxoSgT-72" style="edgeStyle=orthogonalEdgeStyle;rounded=0;orthogonalLoop=1;jettySize=auto;html=1;exitX=0;exitY=0.5;exitDx=0;exitDy=0;" edge="1" parent="WIyWlLk6GJQsqaUBKTNV-1" source="krHY8QpFGz4U-bWxoSgT-70" target="krHY8QpFGz4U-bWxoSgT-65">
          <mxGeometry relative="1" as="geometry" />
        </mxCell>
        <mxCell id="krHY8QpFGz4U-bWxoSgT-70" value="i = i + 1" style="whiteSpace=wrap;html=1;strokeWidth=2;" vertex="1" parent="WIyWlLk6GJQsqaUBKTNV-1">
          <mxGeometry x="-130" y="-60" width="120" height="60" as="geometry" />
        </mxCell>
        <mxCell id="krHY8QpFGz4U-bWxoSgT-73" value="Ausgabe: &quot;Unloading boxes&quot;" style="whiteSpace=wrap;html=1;strokeWidth=2;" vertex="1" parent="WIyWlLk6GJQsqaUBKTNV-1">
          <mxGeometry x="-290" y="180" width="120" height="60" as="geometry" />
        </mxCell>
        <mxCell id="krHY8QpFGz4U-bWxoSgT-77" value="Ja" style="edgeStyle=orthogonalEdgeStyle;rounded=0;orthogonalLoop=1;jettySize=auto;html=1;exitX=0.5;exitY=1;exitDx=0;exitDy=0;exitPerimeter=0;entryX=1;entryY=0.5;entryDx=0;entryDy=0;" edge="1" parent="WIyWlLk6GJQsqaUBKTNV-1" source="krHY8QpFGz4U-bWxoSgT-75" target="krHY8QpFGz4U-bWxoSgT-53">
          <mxGeometry relative="1" as="geometry" />
        </mxCell>
        <mxCell id="krHY8QpFGz4U-bWxoSgT-75" value="CellHasBox()" style="strokeWidth=2;html=1;shape=mxgraph.flowchart.decision;whiteSpace=wrap;" vertex="1" parent="WIyWlLk6GJQsqaUBKTNV-1">
          <mxGeometry x="-670" y="-339" width="100" height="100" as="geometry" />
        </mxCell>
        <mxCell id="krHY8QpFGz4U-bWxoSgT-78" value="Nein" style="edgeStyle=orthogonalEdgeStyle;rounded=0;orthogonalLoop=1;jettySize=auto;html=1;exitX=1;exitY=0.5;exitDx=0;exitDy=0;exitPerimeter=0;entryX=0.832;entryY=0.37;entryDx=0;entryDy=0;entryPerimeter=0;" edge="1" parent="WIyWlLk6GJQsqaUBKTNV-1" source="krHY8QpFGz4U-bWxoSgT-75" target="krHY8QpFGz4U-bWxoSgT-43">
          <mxGeometry relative="1" as="geometry">
            <Array as="points">
              <mxPoint x="-550" y="-289" />
              <mxPoint x="-550" y="-105" />
              <mxPoint x="-710" y="-105" />
              <mxPoint x="-710" y="67" />
            </Array>
          </mxGeometry>
        </mxCell>
      </root>
    </mxGraphModel>
  </diagram>
</mxfile>
